<mxfile host="app.diagrams.net" modified="2024-05-13T20:29:45.775Z" agent="Mozilla/5.0 (Windows NT 10.0; Win64; x64) AppleWebKit/537.36 (KHTML, like Gecko) Chrome/124.0.0.0 Safari/537.36 Edg/124.0.0.0" etag="pD1nqSElamQXhdzNsxpo" version="24.4.0" type="device" pages="2">
  <diagram name="Tools Achitecture" id="GNIJPp7INNkeeV_mgcaL">
    <mxGraphModel dx="2186" dy="751" grid="0" gridSize="10" guides="1" tooltips="1" connect="1" arrows="1" fold="1" page="0" pageScale="1" pageWidth="1169" pageHeight="827" math="0" shadow="0">
      <root>
        <mxCell id="0" />
        <mxCell id="1" parent="0" />
        <mxCell id="CUcF-_f9dYMPG45WWFbY-33" value="" style="rounded=0;whiteSpace=wrap;html=1;fillColor=none;strokeColor=#6c8ebf;strokeWidth=3;" parent="1" vertex="1">
          <mxGeometry x="-415" y="177" width="1355" height="1320" as="geometry" />
        </mxCell>
        <mxCell id="CUcF-_f9dYMPG45WWFbY-29" value="" style="rounded=0;whiteSpace=wrap;html=1;fillColor=#f5f5f5;fontColor=#333333;strokeColor=#666666;" parent="1" vertex="1">
          <mxGeometry x="-370" y="901" width="1277" height="586" as="geometry" />
        </mxCell>
        <mxCell id="CUcF-_f9dYMPG45WWFbY-8" value="" style="rounded=0;whiteSpace=wrap;html=1;fillColor=#f5f5f5;fontColor=#333333;strokeColor=#666666;" parent="1" vertex="1">
          <mxGeometry x="-370" y="247" width="1277" height="586" as="geometry" />
        </mxCell>
        <mxCell id="CUcF-_f9dYMPG45WWFbY-9" value="" style="image;aspect=fixed;html=1;points=[];align=center;fontSize=12;image=img/lib/azure2/general/Subscriptions.svg;" parent="1" vertex="1">
          <mxGeometry x="-400" y="202" width="35" height="56.48" as="geometry" />
        </mxCell>
        <mxCell id="CUcF-_f9dYMPG45WWFbY-10" value="&lt;div style=&quot;font-size: 12px;&quot;&gt;Business&lt;/div&gt;&lt;div style=&quot;font-size: 12px;&quot;&gt;Subscription&lt;/div&gt;" style="text;html=1;align=center;verticalAlign=middle;whiteSpace=wrap;rounded=0;fontSize=12;" parent="1" vertex="1">
          <mxGeometry x="-365" y="217.48" width="72" height="29.52" as="geometry" />
        </mxCell>
        <mxCell id="CUcF-_f9dYMPG45WWFbY-11" value="" style="image;aspect=fixed;html=1;points=[];align=center;fontSize=12;image=img/lib/azure2/general/Resource_Groups.svg;" parent="1" vertex="1">
          <mxGeometry x="-321" y="920" width="35" height="32.94" as="geometry" />
        </mxCell>
        <mxCell id="CUcF-_f9dYMPG45WWFbY-12" value="" style="rounded=1;whiteSpace=wrap;html=1;" parent="1" vertex="1">
          <mxGeometry x="-341" y="952.94" width="381" height="232.06" as="geometry" />
        </mxCell>
        <mxCell id="CUcF-_f9dYMPG45WWFbY-13" value="&lt;div style=&quot;font-size: 12px;&quot;&gt;CI/CD&lt;/div&gt;" style="text;html=1;align=center;verticalAlign=middle;whiteSpace=wrap;rounded=0;fontSize=12;" parent="1" vertex="1">
          <mxGeometry x="-294" y="923.4200000000001" width="72" height="29.52" as="geometry" />
        </mxCell>
        <mxCell id="CUcF-_f9dYMPG45WWFbY-14" value="" style="image;aspect=fixed;html=1;points=[];align=center;fontSize=12;image=img/lib/azure2/general/Resource_Groups.svg;" parent="1" vertex="1">
          <mxGeometry x="92" y="920" width="35" height="32.94" as="geometry" />
        </mxCell>
        <mxCell id="CUcF-_f9dYMPG45WWFbY-15" value="" style="rounded=1;whiteSpace=wrap;html=1;" parent="1" vertex="1">
          <mxGeometry x="72" y="952.94" width="381" height="232" as="geometry" />
        </mxCell>
        <mxCell id="CUcF-_f9dYMPG45WWFbY-16" value="&lt;div style=&quot;font-size: 12px;&quot;&gt;Monitoring &amp;amp; Logging&lt;/div&gt;" style="text;html=1;align=center;verticalAlign=middle;whiteSpace=wrap;rounded=0;fontSize=12;" parent="1" vertex="1">
          <mxGeometry x="127" y="920.3600000000001" width="86" height="29.52" as="geometry" />
        </mxCell>
        <mxCell id="CUcF-_f9dYMPG45WWFbY-17" value="" style="image;aspect=fixed;html=1;points=[];align=center;fontSize=12;image=img/lib/azure2/general/Resource_Groups.svg;" parent="1" vertex="1">
          <mxGeometry x="505" y="920" width="35" height="32.94" as="geometry" />
        </mxCell>
        <mxCell id="CUcF-_f9dYMPG45WWFbY-18" value="" style="rounded=1;whiteSpace=wrap;html=1;" parent="1" vertex="1">
          <mxGeometry x="485" y="949.8800000000001" width="381" height="232" as="geometry" />
        </mxCell>
        <mxCell id="CUcF-_f9dYMPG45WWFbY-19" value="&lt;div style=&quot;font-size: 12px;&quot;&gt;Container&lt;/div&gt;" style="text;html=1;align=center;verticalAlign=middle;whiteSpace=wrap;rounded=0;fontSize=12;" parent="1" vertex="1">
          <mxGeometry x="543" y="923.4200000000001" width="72" height="29.52" as="geometry" />
        </mxCell>
        <mxCell id="CUcF-_f9dYMPG45WWFbY-20" value="" style="image;aspect=fixed;html=1;points=[];align=center;fontSize=12;image=img/lib/azure2/general/Resource_Groups.svg;" parent="1" vertex="1">
          <mxGeometry x="-315" y="282.99999999999994" width="35" height="32.94" as="geometry" />
        </mxCell>
        <mxCell id="CUcF-_f9dYMPG45WWFbY-21" value="" style="rounded=1;whiteSpace=wrap;html=1;" parent="1" vertex="1">
          <mxGeometry x="-335" y="315.94" width="381" height="220" as="geometry" />
        </mxCell>
        <mxCell id="CUcF-_f9dYMPG45WWFbY-22" value="&lt;div style=&quot;font-size: 12px;&quot;&gt;Frontend&lt;/div&gt;" style="text;html=1;align=center;verticalAlign=middle;whiteSpace=wrap;rounded=0;fontSize=12;" parent="1" vertex="1">
          <mxGeometry x="-288" y="286.42" width="72" height="29.52" as="geometry" />
        </mxCell>
        <mxCell id="CUcF-_f9dYMPG45WWFbY-23" value="" style="image;aspect=fixed;html=1;points=[];align=center;fontSize=12;image=img/lib/azure2/general/Resource_Groups.svg;" parent="1" vertex="1">
          <mxGeometry x="98" y="286.41999999999996" width="35" height="32.94" as="geometry" />
        </mxCell>
        <mxCell id="CUcF-_f9dYMPG45WWFbY-24" value="" style="rounded=1;whiteSpace=wrap;html=1;" parent="1" vertex="1">
          <mxGeometry x="78" y="319.36" width="381" height="220" as="geometry" />
        </mxCell>
        <mxCell id="CUcF-_f9dYMPG45WWFbY-25" value="&lt;div style=&quot;font-size: 12px;&quot;&gt;Backend&lt;/div&gt;" style="text;html=1;align=center;verticalAlign=middle;whiteSpace=wrap;rounded=0;fontSize=12;" parent="1" vertex="1">
          <mxGeometry x="125" y="289.84000000000003" width="72" height="29.52" as="geometry" />
        </mxCell>
        <mxCell id="CUcF-_f9dYMPG45WWFbY-26" value="" style="image;aspect=fixed;html=1;points=[];align=center;fontSize=12;image=img/lib/azure2/general/Resource_Groups.svg;" parent="1" vertex="1">
          <mxGeometry x="511" y="286.41999999999996" width="35" height="32.94" as="geometry" />
        </mxCell>
        <mxCell id="CUcF-_f9dYMPG45WWFbY-27" value="" style="rounded=1;whiteSpace=wrap;html=1;" parent="1" vertex="1">
          <mxGeometry x="491" y="319.36" width="381" height="220" as="geometry" />
        </mxCell>
        <mxCell id="CUcF-_f9dYMPG45WWFbY-28" value="&lt;div style=&quot;font-size: 12px;&quot;&gt;Database&lt;/div&gt;" style="text;html=1;align=center;verticalAlign=middle;whiteSpace=wrap;rounded=0;fontSize=12;" parent="1" vertex="1">
          <mxGeometry x="538" y="289.84000000000003" width="72" height="29.52" as="geometry" />
        </mxCell>
        <mxCell id="CUcF-_f9dYMPG45WWFbY-30" value="" style="image;aspect=fixed;html=1;points=[];align=center;fontSize=12;image=img/lib/azure2/general/Subscriptions.svg;" parent="1" vertex="1">
          <mxGeometry x="-400" y="856" width="35" height="56.48" as="geometry" />
        </mxCell>
        <mxCell id="CUcF-_f9dYMPG45WWFbY-31" value="&lt;div style=&quot;font-size: 12px;&quot;&gt;IT&lt;/div&gt;&lt;div style=&quot;font-size: 12px;&quot;&gt;Subscription&lt;/div&gt;" style="text;html=1;align=center;verticalAlign=middle;whiteSpace=wrap;rounded=0;fontSize=12;" parent="1" vertex="1">
          <mxGeometry x="-365" y="871.48" width="72" height="29.52" as="geometry" />
        </mxCell>
        <mxCell id="CUcF-_f9dYMPG45WWFbY-32" value="" style="shape=image;verticalLabelPosition=bottom;labelBackgroundColor=default;verticalAlign=top;aspect=fixed;imageAspect=0;image=https://cdn-icons-png.flaticon.com/512/873/873107.png;" parent="1" vertex="1">
          <mxGeometry x="-410.0028571428568" y="132.00285714285735" width="45" height="45" as="geometry" />
        </mxCell>
        <mxCell id="CUcF-_f9dYMPG45WWFbY-34" value="" style="image;aspect=fixed;html=1;points=[];align=center;fontSize=12;image=img/lib/azure2/general/Resource_Groups.svg;" parent="1" vertex="1">
          <mxGeometry x="98" y="553" width="35" height="32.94" as="geometry" />
        </mxCell>
        <mxCell id="CUcF-_f9dYMPG45WWFbY-35" value="" style="rounded=1;whiteSpace=wrap;html=1;" parent="1" vertex="1">
          <mxGeometry x="78" y="585.94" width="381" height="220" as="geometry" />
        </mxCell>
        <mxCell id="CUcF-_f9dYMPG45WWFbY-36" value="&lt;div style=&quot;font-size: 12px;&quot;&gt;Network&lt;/div&gt;" style="text;html=1;align=center;verticalAlign=middle;whiteSpace=wrap;rounded=0;fontSize=12;" parent="1" vertex="1">
          <mxGeometry x="125" y="556.4200000000001" width="72" height="29.52" as="geometry" />
        </mxCell>
        <mxCell id="CUcF-_f9dYMPG45WWFbY-37" value="Vnet" style="verticalLabelPosition=bottom;html=1;verticalAlign=top;align=center;strokeColor=none;fillColor=#00BEF2;shape=mxgraph.azure.virtual_network;pointerEvents=1;aspect=fixed;" parent="1" vertex="1">
          <mxGeometry x="136" y="619" width="50" height="27.500000000000004" as="geometry" />
        </mxCell>
        <mxCell id="CUcF-_f9dYMPG45WWFbY-38" value="Security&lt;div&gt;Group&lt;/div&gt;" style="image;aspect=fixed;html=1;points=[];align=center;fontSize=12;image=img/lib/azure2/networking/Network_Security_Groups.svg;" parent="1" vertex="1">
          <mxGeometry x="242.5" y="700" width="40" height="48.57" as="geometry" />
        </mxCell>
        <mxCell id="CUcF-_f9dYMPG45WWFbY-39" value="Route Table" style="image;aspect=fixed;html=1;points=[];align=center;fontSize=12;image=img/lib/azure2/networking/Route_Tables.svg;" parent="1" vertex="1">
          <mxGeometry x="342" y="608.54" width="50" height="48.43" as="geometry" />
        </mxCell>
        <mxCell id="CUcF-_f9dYMPG45WWFbY-41" value="&lt;div style=&quot;font-size: 12px;&quot;&gt;Azure Cloud&lt;/div&gt;" style="text;html=1;align=center;verticalAlign=middle;whiteSpace=wrap;rounded=0;fontSize=12;" parent="1" vertex="1">
          <mxGeometry x="-363" y="142" width="72" height="29.52" as="geometry" />
        </mxCell>
        <mxCell id="CUcF-_f9dYMPG45WWFbY-42" value="Load Balancer" style="image;aspect=fixed;html=1;points=[];align=center;fontSize=12;image=img/lib/azure2/networking/Load_Balancers.svg;" parent="1" vertex="1">
          <mxGeometry x="-296" y="389.94" width="50" height="50" as="geometry" />
        </mxCell>
        <mxCell id="CUcF-_f9dYMPG45WWFbY-43" value="CDN" style="image;aspect=fixed;html=1;points=[];align=center;fontSize=12;image=img/lib/azure2/networking/CDN_Profiles.svg;" parent="1" vertex="1">
          <mxGeometry x="-90" y="394.94" width="68" height="40" as="geometry" />
        </mxCell>
        <mxCell id="CUcF-_f9dYMPG45WWFbY-45" value="Virtual Machine" style="verticalLabelPosition=bottom;html=1;verticalAlign=top;align=center;strokeColor=none;fillColor=#00BEF2;shape=mxgraph.azure.virtual_machine_feature;pointerEvents=1;" parent="1" vertex="1">
          <mxGeometry x="141" y="406.86" width="50" height="45" as="geometry" />
        </mxCell>
        <mxCell id="CUcF-_f9dYMPG45WWFbY-46" value="Blob Storage" style="verticalLabelPosition=bottom;html=1;verticalAlign=top;align=center;strokeColor=none;fillColor=#00BEF2;shape=mxgraph.azure.storage_blob;" parent="1" vertex="1">
          <mxGeometry x="354" y="403.44" width="50" height="45" as="geometry" />
        </mxCell>
        <mxCell id="CUcF-_f9dYMPG45WWFbY-48" value="MySQL" style="image;aspect=fixed;html=1;points=[];align=center;fontSize=12;image=img/lib/azure2/databases/Azure_Database_MySQL_Server.svg;" parent="1" vertex="1">
          <mxGeometry x="550" y="393.94" width="50" height="66.67" as="geometry" />
        </mxCell>
        <mxCell id="CUcF-_f9dYMPG45WWFbY-49" value="Redis" style="image;sketch=0;aspect=fixed;html=1;points=[];align=center;fontSize=12;image=img/lib/mscae/Cache_Redis_Product.svg;" parent="1" vertex="1">
          <mxGeometry x="786" y="404.94" width="50" height="42" as="geometry" />
        </mxCell>
        <mxCell id="CUcF-_f9dYMPG45WWFbY-50" value="Azure Cache&lt;div&gt;for Redis&lt;/div&gt;" style="image;sketch=0;aspect=fixed;html=1;points=[];align=center;fontSize=12;image=img/lib/mscae/Azure_Cache_for_Redis.svg;" parent="1" vertex="1">
          <mxGeometry x="668" y="400.94" width="50" height="50" as="geometry" />
        </mxCell>
        <mxCell id="CUcF-_f9dYMPG45WWFbY-55" value="" style="shape=image;verticalLabelPosition=bottom;labelBackgroundColor=default;verticalAlign=top;aspect=fixed;imageAspect=0;image=https://d3r49iyjzglexf.cloudfront.net/circleci-logo-stacked-fb-657e221fda1646a7e652c09c9fbfb2b0feb5d710089bb4d8e8c759d37a832694.png;" parent="1" vertex="1">
          <mxGeometry x="-299" y="1032.94" width="70" height="70" as="geometry" />
        </mxCell>
        <mxCell id="CUcF-_f9dYMPG45WWFbY-57" value="" style="shape=image;verticalLabelPosition=bottom;labelBackgroundColor=default;verticalAlign=top;aspect=fixed;imageAspect=0;image=https://cdn.iconscout.com/icon/free/png-256/free-jenkins-1-282385.png;" parent="1" vertex="1">
          <mxGeometry x="-183" y="1032.94" width="60" height="60" as="geometry" />
        </mxCell>
        <mxCell id="CUcF-_f9dYMPG45WWFbY-58" value="Azure DevOps" style="image;aspect=fixed;html=1;points=[];align=center;fontSize=12;image=img/lib/azure2/devops/Azure_DevOps.svg;" parent="1" vertex="1">
          <mxGeometry x="-67" y="1031" width="45" height="45" as="geometry" />
        </mxCell>
        <mxCell id="CUcF-_f9dYMPG45WWFbY-59" value="TeamCity" style="shape=image;verticalLabelPosition=bottom;labelBackgroundColor=default;verticalAlign=top;aspect=fixed;imageAspect=0;image=https://upload.wikimedia.org/wikipedia/commons/thumb/2/29/TeamCity_Icon.svg/1200px-TeamCity_Icon.svg.png;" parent="1" vertex="1">
          <mxGeometry x="-291" y="963" width="60" height="60" as="geometry" />
        </mxCell>
        <mxCell id="CUcF-_f9dYMPG45WWFbY-60" value="BitBucket" style="image;html=1;image=img/lib/atlassian/Bitbucket_Logo.svg;aspect=fixed;" parent="1" vertex="1">
          <mxGeometry x="-289" y="1115" width="50" height="43.86" as="geometry" />
        </mxCell>
        <mxCell id="CUcF-_f9dYMPG45WWFbY-61" value="Git" style="verticalLabelPosition=bottom;html=1;verticalAlign=top;align=center;strokeColor=none;fillColor=#00BEF2;shape=mxgraph.azure.github_code;pointerEvents=1;" parent="1" vertex="1">
          <mxGeometry x="-178" y="1111.93" width="50" height="50" as="geometry" />
        </mxCell>
        <mxCell id="CUcF-_f9dYMPG45WWFbY-67" value="Gitlab CI/CD" style="dashed=0;outlineConnect=0;html=1;align=center;labelPosition=center;verticalLabelPosition=bottom;verticalAlign=top;shape=mxgraph.weblogos.github;aspect=fixed;" parent="1" vertex="1">
          <mxGeometry x="-178" y="958" width="50" height="50" as="geometry" />
        </mxCell>
        <mxCell id="CUcF-_f9dYMPG45WWFbY-68" value="Azure Repo" style="image;sketch=0;aspect=fixed;html=1;points=[];align=center;fontSize=12;image=img/lib/mscae/Azure_Repos.svg;" parent="1" vertex="1">
          <mxGeometry x="-67" y="1111.93" width="45" height="50" as="geometry" />
        </mxCell>
        <mxCell id="CUcF-_f9dYMPG45WWFbY-69" value="" style="shape=image;verticalLabelPosition=bottom;labelBackgroundColor=default;verticalAlign=top;aspect=fixed;imageAspect=0;image=https://www.opsmx.com/wp-content/uploads/2022/07/Argo-1-e1630327305635-1.png;" parent="1" vertex="1">
          <mxGeometry x="-101" y="956.48" width="110" height="73.03" as="geometry" />
        </mxCell>
        <mxCell id="CUcF-_f9dYMPG45WWFbY-71" value="Prometheus" style="shape=image;verticalLabelPosition=bottom;labelBackgroundColor=default;verticalAlign=top;aspect=fixed;imageAspect=0;image=https://static-00.iconduck.com/assets.00/prometheus-icon-511x512-1vmxbcxr.png;" parent="1" vertex="1">
          <mxGeometry x="102" y="1040.83" width="50" height="50.1" as="geometry" />
        </mxCell>
        <mxCell id="CUcF-_f9dYMPG45WWFbY-72" value="Grafanna" style="image;aspect=fixed;html=1;points=[];align=center;fontSize=12;image=img/lib/azure2/other/Grafana.svg;" parent="1" vertex="1">
          <mxGeometry x="237.5" y="1049.56" width="50" height="38.82" as="geometry" />
        </mxCell>
        <mxCell id="CUcF-_f9dYMPG45WWFbY-74" value="Elasticseach" style="shape=image;verticalLabelPosition=bottom;labelBackgroundColor=default;verticalAlign=top;aspect=fixed;imageAspect=0;image=https://cdn.iconscout.com/icon/free/png-256/free-elastic-search-3629336-3031835.png;" parent="1" vertex="1">
          <mxGeometry x="102" y="961" width="50" height="50" as="geometry" />
        </mxCell>
        <mxCell id="CUcF-_f9dYMPG45WWFbY-75" value="Logstash" style="shape=image;verticalLabelPosition=bottom;labelBackgroundColor=default;verticalAlign=top;aspect=fixed;imageAspect=0;image=https://cdn.iconscout.com/icon/free/png-256/free-logstash-3628896-3030036.png;" parent="1" vertex="1">
          <mxGeometry x="237.5" y="961" width="50" height="50" as="geometry" />
        </mxCell>
        <mxCell id="CUcF-_f9dYMPG45WWFbY-76" value="Kibana" style="shape=image;verticalLabelPosition=bottom;labelBackgroundColor=default;verticalAlign=top;aspect=fixed;imageAspect=0;image=https://cdn.worldvectorlogo.com/logos/elastic-kibana.svg;" parent="1" vertex="1">
          <mxGeometry x="361" y="968" width="50" height="50" as="geometry" />
        </mxCell>
        <mxCell id="CUcF-_f9dYMPG45WWFbY-78" value="Kubernetes" style="shape=image;verticalLabelPosition=bottom;labelBackgroundColor=default;verticalAlign=top;aspect=fixed;imageAspect=0;image=https://static-00.iconduck.com/assets.00/kubernetes-icon-2048x1995-r1q3f8n7.png;" parent="1" vertex="1">
          <mxGeometry x="554" y="980.8000000000001" width="50" height="48.71" as="geometry" />
        </mxCell>
        <mxCell id="CUcF-_f9dYMPG45WWFbY-79" value="" style="image;aspect=fixed;html=1;points=[];align=center;fontSize=12;image=img/lib/azure2/general/Resource_Groups.svg;" parent="1" vertex="1">
          <mxGeometry x="86" y="1208.9999999999998" width="35" height="32.94" as="geometry" />
        </mxCell>
        <mxCell id="CUcF-_f9dYMPG45WWFbY-80" value="" style="rounded=1;whiteSpace=wrap;html=1;" parent="1" vertex="1">
          <mxGeometry x="78" y="1245.8799999999999" width="381" height="232" as="geometry" />
        </mxCell>
        <mxCell id="CUcF-_f9dYMPG45WWFbY-81" value="&lt;div style=&quot;font-size: 12px;&quot;&gt;Management&lt;/div&gt;" style="text;html=1;align=center;verticalAlign=middle;whiteSpace=wrap;rounded=0;fontSize=12;" parent="1" vertex="1">
          <mxGeometry x="125" y="1216.36" width="72" height="29.52" as="geometry" />
        </mxCell>
        <mxCell id="CUcF-_f9dYMPG45WWFbY-82" value="" style="shape=image;verticalLabelPosition=bottom;labelBackgroundColor=default;verticalAlign=top;aspect=fixed;imageAspect=0;image=https://upload.wikimedia.org/wikipedia/commons/thumb/2/24/Ansible_logo.svg/1664px-Ansible_logo.svg.png;" parent="1" vertex="1">
          <mxGeometry x="145" y="1384.9999999999998" width="50" height="61.5" as="geometry" />
        </mxCell>
        <mxCell id="CUcF-_f9dYMPG45WWFbY-83" value="" style="shape=image;verticalLabelPosition=bottom;labelBackgroundColor=default;verticalAlign=top;aspect=fixed;imageAspect=0;image=https://upload.wikimedia.org/wikipedia/commons/thumb/8/8a/Chef_logo.svg/1200px-Chef_logo.svg.png;" parent="1" vertex="1">
          <mxGeometry x="347" y="1266.9999999999998" width="60" height="64.22" as="geometry" />
        </mxCell>
        <mxCell id="CUcF-_f9dYMPG45WWFbY-84" value="Puppet" style="shape=image;verticalLabelPosition=bottom;labelBackgroundColor=default;verticalAlign=top;aspect=fixed;imageAspect=0;image=https://cdn.icon-icons.com/icons2/2699/PNG/512/puppet_logo_icon_168887.png;" parent="1" vertex="1">
          <mxGeometry x="351" y="1383" width="60" height="60" as="geometry" />
        </mxCell>
        <mxCell id="CUcF-_f9dYMPG45WWFbY-85" value="" style="image;sketch=0;aspect=fixed;html=1;points=[];align=center;fontSize=12;image=img/lib/mscae/Docker.svg;" parent="1" vertex="1">
          <mxGeometry x="720" y="1088.3799999999999" width="60" height="49.2" as="geometry" />
        </mxCell>
        <mxCell id="CUcF-_f9dYMPG45WWFbY-86" value="Azure Kubernetes&lt;div&gt;Service&lt;/div&gt;" style="image;aspect=fixed;html=1;points=[];align=center;fontSize=12;image=img/lib/azure2/compute/Kubernetes_Services.svg;" parent="1" vertex="1">
          <mxGeometry x="545" y="1083" width="68" height="60" as="geometry" />
        </mxCell>
        <mxCell id="CUcF-_f9dYMPG45WWFbY-87" value="" style="shape=image;verticalLabelPosition=bottom;labelBackgroundColor=default;verticalAlign=top;aspect=fixed;imageAspect=0;image=https://iconape.com/wp-content/png_logo_vector/nginx.png;" parent="1" vertex="1">
          <mxGeometry x="-188" y="395.9433333333335" width="60" height="60" as="geometry" />
        </mxCell>
        <mxCell id="CUcF-_f9dYMPG45WWFbY-88" value="" style="shape=image;verticalLabelPosition=bottom;labelBackgroundColor=default;verticalAlign=top;aspect=fixed;imageAspect=0;image=https://s3-ap-southeast-2.amazonaws.com/content-prod-529546285894/2020/03/tf.png;" parent="1" vertex="1">
          <mxGeometry x="129.99823529411776" y="1259.164117647059" width="80" height="79.89" as="geometry" />
        </mxCell>
        <mxCell id="CUcF-_f9dYMPG45WWFbY-89" value="Terragrunt" style="shape=image;verticalLabelPosition=bottom;labelBackgroundColor=default;verticalAlign=top;aspect=fixed;imageAspect=0;image=https://global.discourse-cdn.com/standard11/uploads/gruntwork/original/1X/451c24614aece67849fd62d0432d77ecd00735c6.png;" parent="1" vertex="1">
          <mxGeometry x="248.9964705882354" y="1262.0011764705882" width="60" height="60" as="geometry" />
        </mxCell>
        <mxCell id="CUcF-_f9dYMPG45WWFbY-90" value="Azure Bastion" style="image;aspect=fixed;html=1;points=[];align=center;fontSize=12;image=img/lib/azure2/networking/Bastions.svg;" parent="1" vertex="1">
          <mxGeometry x="256.5" y="1383" width="45" height="52.76" as="geometry" />
        </mxCell>
        <mxCell id="CUcF-_f9dYMPG45WWFbY-91" value="" style="image;aspect=fixed;html=1;points=[];align=center;fontSize=12;image=img/lib/azure2/general/Resource_Groups.svg;" parent="1" vertex="1">
          <mxGeometry x="-322" y="1208.9999999999998" width="35" height="32.94" as="geometry" />
        </mxCell>
        <mxCell id="CUcF-_f9dYMPG45WWFbY-92" value="" style="rounded=1;whiteSpace=wrap;html=1;" parent="1" vertex="1">
          <mxGeometry x="-330" y="1245.8799999999999" width="381" height="232" as="geometry" />
        </mxCell>
        <mxCell id="CUcF-_f9dYMPG45WWFbY-93" value="&lt;div style=&quot;font-size: 12px;&quot;&gt;Security&lt;/div&gt;" style="text;html=1;align=center;verticalAlign=middle;whiteSpace=wrap;rounded=0;fontSize=12;" parent="1" vertex="1">
          <mxGeometry x="-283" y="1216.36" width="72" height="29.52" as="geometry" />
        </mxCell>
        <mxCell id="CUcF-_f9dYMPG45WWFbY-100" value="HashCorp Vault" style="shape=image;verticalLabelPosition=bottom;labelBackgroundColor=default;verticalAlign=top;aspect=fixed;imageAspect=0;image=https://www.linode.com/docs/guides/applications/configuration-management/vault/feature.png;" parent="1" vertex="1">
          <mxGeometry x="-277" y="1261.9970588235292" width="60" height="60" as="geometry" />
        </mxCell>
        <mxCell id="CUcF-_f9dYMPG45WWFbY-101" value="Azure Key Vault" style="image;aspect=fixed;html=1;points=[];align=center;fontSize=12;image=img/lib/azure2/security/Key_Vaults.svg;" parent="1" vertex="1">
          <mxGeometry x="-64" y="1262" width="60" height="60" as="geometry" />
        </mxCell>
        <mxCell id="CUcF-_f9dYMPG45WWFbY-102" value="Azure Firewall&lt;div&gt;Manager&lt;/div&gt;" style="image;sketch=0;aspect=fixed;html=1;points=[];align=center;fontSize=12;image=img/lib/mscae/Azure_Firewall.svg;" parent="1" vertex="1">
          <mxGeometry x="-169.5" y="1375.76" width="60" height="60" as="geometry" />
        </mxCell>
        <mxCell id="yCkpheZNltZMz6eRwdAU-1" value="" style="shape=image;verticalLabelPosition=bottom;labelBackgroundColor=default;verticalAlign=top;aspect=fixed;imageAspect=0;image=https://static-00.iconduck.com/assets.00/helm-icon-1968x2048-qxdgjy3w.png;" vertex="1" parent="1">
          <mxGeometry x="718" y="973.9300000000001" width="60" height="62.45" as="geometry" />
        </mxCell>
      </root>
    </mxGraphModel>
  </diagram>
  <diagram name="1° Stack Tools Achitecture" id="f_VHgNp8QJqoyRGS--za">
    <mxGraphModel dx="2186" dy="751" grid="0" gridSize="10" guides="1" tooltips="1" connect="1" arrows="1" fold="1" page="0" pageScale="1" pageWidth="1169" pageHeight="827" math="0" shadow="0">
      <root>
        <mxCell id="seVqkqyQpupVL747UMXm-0" />
        <mxCell id="seVqkqyQpupVL747UMXm-1" parent="seVqkqyQpupVL747UMXm-0" />
        <mxCell id="seVqkqyQpupVL747UMXm-2" value="" style="rounded=0;whiteSpace=wrap;html=1;fillColor=none;strokeColor=#6c8ebf;strokeWidth=3;" vertex="1" parent="seVqkqyQpupVL747UMXm-1">
          <mxGeometry x="-415" y="177" width="1355" height="1320" as="geometry" />
        </mxCell>
        <mxCell id="seVqkqyQpupVL747UMXm-3" value="" style="rounded=0;whiteSpace=wrap;html=1;fillColor=#f5f5f5;fontColor=#333333;strokeColor=#666666;" vertex="1" parent="seVqkqyQpupVL747UMXm-1">
          <mxGeometry x="-370" y="901" width="1277" height="586" as="geometry" />
        </mxCell>
        <mxCell id="seVqkqyQpupVL747UMXm-4" value="" style="rounded=0;whiteSpace=wrap;html=1;fillColor=#f5f5f5;fontColor=#333333;strokeColor=#666666;" vertex="1" parent="seVqkqyQpupVL747UMXm-1">
          <mxGeometry x="-370" y="247" width="1277" height="586" as="geometry" />
        </mxCell>
        <mxCell id="seVqkqyQpupVL747UMXm-5" value="" style="image;aspect=fixed;html=1;points=[];align=center;fontSize=12;image=img/lib/azure2/general/Subscriptions.svg;" vertex="1" parent="seVqkqyQpupVL747UMXm-1">
          <mxGeometry x="-400" y="202" width="35" height="56.48" as="geometry" />
        </mxCell>
        <mxCell id="seVqkqyQpupVL747UMXm-6" value="&lt;div style=&quot;font-size: 12px;&quot;&gt;Business&lt;/div&gt;&lt;div style=&quot;font-size: 12px;&quot;&gt;Subscription&lt;/div&gt;" style="text;html=1;align=center;verticalAlign=middle;whiteSpace=wrap;rounded=0;fontSize=12;" vertex="1" parent="seVqkqyQpupVL747UMXm-1">
          <mxGeometry x="-365" y="217.48" width="72" height="29.52" as="geometry" />
        </mxCell>
        <mxCell id="seVqkqyQpupVL747UMXm-7" value="" style="image;aspect=fixed;html=1;points=[];align=center;fontSize=12;image=img/lib/azure2/general/Resource_Groups.svg;" vertex="1" parent="seVqkqyQpupVL747UMXm-1">
          <mxGeometry x="-321" y="920" width="35" height="32.94" as="geometry" />
        </mxCell>
        <mxCell id="seVqkqyQpupVL747UMXm-8" value="" style="rounded=1;whiteSpace=wrap;html=1;" vertex="1" parent="seVqkqyQpupVL747UMXm-1">
          <mxGeometry x="-341" y="952.94" width="381" height="232.06" as="geometry" />
        </mxCell>
        <mxCell id="seVqkqyQpupVL747UMXm-9" value="&lt;div style=&quot;font-size: 12px;&quot;&gt;CI/CD&lt;/div&gt;" style="text;html=1;align=center;verticalAlign=middle;whiteSpace=wrap;rounded=0;fontSize=12;" vertex="1" parent="seVqkqyQpupVL747UMXm-1">
          <mxGeometry x="-294" y="923.4200000000001" width="72" height="29.52" as="geometry" />
        </mxCell>
        <mxCell id="seVqkqyQpupVL747UMXm-10" value="" style="image;aspect=fixed;html=1;points=[];align=center;fontSize=12;image=img/lib/azure2/general/Resource_Groups.svg;" vertex="1" parent="seVqkqyQpupVL747UMXm-1">
          <mxGeometry x="92" y="920" width="35" height="32.94" as="geometry" />
        </mxCell>
        <mxCell id="seVqkqyQpupVL747UMXm-11" value="" style="rounded=1;whiteSpace=wrap;html=1;" vertex="1" parent="seVqkqyQpupVL747UMXm-1">
          <mxGeometry x="72" y="952.94" width="381" height="232" as="geometry" />
        </mxCell>
        <mxCell id="seVqkqyQpupVL747UMXm-12" value="&lt;div style=&quot;font-size: 12px;&quot;&gt;Monitoring &amp;amp; Logging&lt;/div&gt;" style="text;html=1;align=center;verticalAlign=middle;whiteSpace=wrap;rounded=0;fontSize=12;" vertex="1" parent="seVqkqyQpupVL747UMXm-1">
          <mxGeometry x="127" y="920.3600000000001" width="86" height="29.52" as="geometry" />
        </mxCell>
        <mxCell id="seVqkqyQpupVL747UMXm-13" value="" style="image;aspect=fixed;html=1;points=[];align=center;fontSize=12;image=img/lib/azure2/general/Resource_Groups.svg;" vertex="1" parent="seVqkqyQpupVL747UMXm-1">
          <mxGeometry x="505" y="920" width="35" height="32.94" as="geometry" />
        </mxCell>
        <mxCell id="seVqkqyQpupVL747UMXm-14" value="" style="rounded=1;whiteSpace=wrap;html=1;" vertex="1" parent="seVqkqyQpupVL747UMXm-1">
          <mxGeometry x="485" y="949.8800000000001" width="381" height="232" as="geometry" />
        </mxCell>
        <mxCell id="seVqkqyQpupVL747UMXm-15" value="&lt;div style=&quot;font-size: 12px;&quot;&gt;Container&lt;/div&gt;" style="text;html=1;align=center;verticalAlign=middle;whiteSpace=wrap;rounded=0;fontSize=12;" vertex="1" parent="seVqkqyQpupVL747UMXm-1">
          <mxGeometry x="543" y="923.4200000000001" width="72" height="29.52" as="geometry" />
        </mxCell>
        <mxCell id="seVqkqyQpupVL747UMXm-16" value="" style="image;aspect=fixed;html=1;points=[];align=center;fontSize=12;image=img/lib/azure2/general/Resource_Groups.svg;" vertex="1" parent="seVqkqyQpupVL747UMXm-1">
          <mxGeometry x="-315" y="282.99999999999994" width="35" height="32.94" as="geometry" />
        </mxCell>
        <mxCell id="seVqkqyQpupVL747UMXm-17" value="" style="rounded=1;whiteSpace=wrap;html=1;" vertex="1" parent="seVqkqyQpupVL747UMXm-1">
          <mxGeometry x="-335" y="315.94" width="381" height="220" as="geometry" />
        </mxCell>
        <mxCell id="seVqkqyQpupVL747UMXm-18" value="&lt;div style=&quot;font-size: 12px;&quot;&gt;Frontend&lt;/div&gt;" style="text;html=1;align=center;verticalAlign=middle;whiteSpace=wrap;rounded=0;fontSize=12;" vertex="1" parent="seVqkqyQpupVL747UMXm-1">
          <mxGeometry x="-288" y="286.42" width="72" height="29.52" as="geometry" />
        </mxCell>
        <mxCell id="seVqkqyQpupVL747UMXm-19" value="" style="image;aspect=fixed;html=1;points=[];align=center;fontSize=12;image=img/lib/azure2/general/Resource_Groups.svg;" vertex="1" parent="seVqkqyQpupVL747UMXm-1">
          <mxGeometry x="98" y="286.41999999999996" width="35" height="32.94" as="geometry" />
        </mxCell>
        <mxCell id="seVqkqyQpupVL747UMXm-20" value="" style="rounded=1;whiteSpace=wrap;html=1;" vertex="1" parent="seVqkqyQpupVL747UMXm-1">
          <mxGeometry x="78" y="319.36" width="381" height="220" as="geometry" />
        </mxCell>
        <mxCell id="seVqkqyQpupVL747UMXm-21" value="&lt;div style=&quot;font-size: 12px;&quot;&gt;Backend&lt;/div&gt;" style="text;html=1;align=center;verticalAlign=middle;whiteSpace=wrap;rounded=0;fontSize=12;" vertex="1" parent="seVqkqyQpupVL747UMXm-1">
          <mxGeometry x="125" y="289.84000000000003" width="72" height="29.52" as="geometry" />
        </mxCell>
        <mxCell id="seVqkqyQpupVL747UMXm-22" value="" style="image;aspect=fixed;html=1;points=[];align=center;fontSize=12;image=img/lib/azure2/general/Resource_Groups.svg;" vertex="1" parent="seVqkqyQpupVL747UMXm-1">
          <mxGeometry x="511" y="286.41999999999996" width="35" height="32.94" as="geometry" />
        </mxCell>
        <mxCell id="seVqkqyQpupVL747UMXm-23" value="" style="rounded=1;whiteSpace=wrap;html=1;" vertex="1" parent="seVqkqyQpupVL747UMXm-1">
          <mxGeometry x="491" y="319.36" width="381" height="220" as="geometry" />
        </mxCell>
        <mxCell id="seVqkqyQpupVL747UMXm-24" value="&lt;div style=&quot;font-size: 12px;&quot;&gt;Database&lt;/div&gt;" style="text;html=1;align=center;verticalAlign=middle;whiteSpace=wrap;rounded=0;fontSize=12;" vertex="1" parent="seVqkqyQpupVL747UMXm-1">
          <mxGeometry x="538" y="289.84000000000003" width="72" height="29.52" as="geometry" />
        </mxCell>
        <mxCell id="seVqkqyQpupVL747UMXm-25" value="" style="image;aspect=fixed;html=1;points=[];align=center;fontSize=12;image=img/lib/azure2/general/Subscriptions.svg;" vertex="1" parent="seVqkqyQpupVL747UMXm-1">
          <mxGeometry x="-400" y="856" width="35" height="56.48" as="geometry" />
        </mxCell>
        <mxCell id="seVqkqyQpupVL747UMXm-26" value="&lt;div style=&quot;font-size: 12px;&quot;&gt;IT&lt;/div&gt;&lt;div style=&quot;font-size: 12px;&quot;&gt;Subscription&lt;/div&gt;" style="text;html=1;align=center;verticalAlign=middle;whiteSpace=wrap;rounded=0;fontSize=12;" vertex="1" parent="seVqkqyQpupVL747UMXm-1">
          <mxGeometry x="-365" y="871.48" width="72" height="29.52" as="geometry" />
        </mxCell>
        <mxCell id="seVqkqyQpupVL747UMXm-27" value="" style="shape=image;verticalLabelPosition=bottom;labelBackgroundColor=default;verticalAlign=top;aspect=fixed;imageAspect=0;image=https://cdn-icons-png.flaticon.com/512/873/873107.png;" vertex="1" parent="seVqkqyQpupVL747UMXm-1">
          <mxGeometry x="-410.0028571428568" y="132.00285714285735" width="45" height="45" as="geometry" />
        </mxCell>
        <mxCell id="seVqkqyQpupVL747UMXm-28" value="" style="image;aspect=fixed;html=1;points=[];align=center;fontSize=12;image=img/lib/azure2/general/Resource_Groups.svg;" vertex="1" parent="seVqkqyQpupVL747UMXm-1">
          <mxGeometry x="98" y="553" width="35" height="32.94" as="geometry" />
        </mxCell>
        <mxCell id="seVqkqyQpupVL747UMXm-29" value="" style="rounded=1;whiteSpace=wrap;html=1;" vertex="1" parent="seVqkqyQpupVL747UMXm-1">
          <mxGeometry x="78" y="585.94" width="381" height="220" as="geometry" />
        </mxCell>
        <mxCell id="seVqkqyQpupVL747UMXm-30" value="&lt;div style=&quot;font-size: 12px;&quot;&gt;Network&lt;/div&gt;" style="text;html=1;align=center;verticalAlign=middle;whiteSpace=wrap;rounded=0;fontSize=12;" vertex="1" parent="seVqkqyQpupVL747UMXm-1">
          <mxGeometry x="125" y="556.4200000000001" width="72" height="29.52" as="geometry" />
        </mxCell>
        <mxCell id="seVqkqyQpupVL747UMXm-31" value="Vnet" style="verticalLabelPosition=bottom;html=1;verticalAlign=top;align=center;strokeColor=none;fillColor=#00BEF2;shape=mxgraph.azure.virtual_network;pointerEvents=1;aspect=fixed;" vertex="1" parent="seVqkqyQpupVL747UMXm-1">
          <mxGeometry x="136" y="619" width="50" height="27.500000000000004" as="geometry" />
        </mxCell>
        <mxCell id="seVqkqyQpupVL747UMXm-32" value="Security&lt;div&gt;Group&lt;/div&gt;" style="image;aspect=fixed;html=1;points=[];align=center;fontSize=12;image=img/lib/azure2/networking/Network_Security_Groups.svg;" vertex="1" parent="seVqkqyQpupVL747UMXm-1">
          <mxGeometry x="242.5" y="700" width="40" height="48.57" as="geometry" />
        </mxCell>
        <mxCell id="seVqkqyQpupVL747UMXm-33" value="Route Table" style="image;aspect=fixed;html=1;points=[];align=center;fontSize=12;image=img/lib/azure2/networking/Route_Tables.svg;" vertex="1" parent="seVqkqyQpupVL747UMXm-1">
          <mxGeometry x="342" y="608.54" width="50" height="48.43" as="geometry" />
        </mxCell>
        <mxCell id="seVqkqyQpupVL747UMXm-34" value="&lt;div style=&quot;font-size: 12px;&quot;&gt;Azure Cloud&lt;/div&gt;" style="text;html=1;align=center;verticalAlign=middle;whiteSpace=wrap;rounded=0;fontSize=12;" vertex="1" parent="seVqkqyQpupVL747UMXm-1">
          <mxGeometry x="-363" y="142" width="72" height="29.52" as="geometry" />
        </mxCell>
        <mxCell id="seVqkqyQpupVL747UMXm-35" value="Load Balancer" style="image;aspect=fixed;html=1;points=[];align=center;fontSize=12;image=img/lib/azure2/networking/Load_Balancers.svg;" vertex="1" parent="seVqkqyQpupVL747UMXm-1">
          <mxGeometry x="-296" y="389.94" width="50" height="50" as="geometry" />
        </mxCell>
        <mxCell id="seVqkqyQpupVL747UMXm-36" value="CDN" style="image;aspect=fixed;html=1;points=[];align=center;fontSize=12;image=img/lib/azure2/networking/CDN_Profiles.svg;" vertex="1" parent="seVqkqyQpupVL747UMXm-1">
          <mxGeometry x="-90" y="394.94" width="68" height="40" as="geometry" />
        </mxCell>
        <mxCell id="seVqkqyQpupVL747UMXm-37" value="Virtual Machine" style="verticalLabelPosition=bottom;html=1;verticalAlign=top;align=center;strokeColor=none;fillColor=#00BEF2;shape=mxgraph.azure.virtual_machine_feature;pointerEvents=1;" vertex="1" parent="seVqkqyQpupVL747UMXm-1">
          <mxGeometry x="141" y="406.86" width="50" height="45" as="geometry" />
        </mxCell>
        <mxCell id="seVqkqyQpupVL747UMXm-38" value="Blob Storage" style="verticalLabelPosition=bottom;html=1;verticalAlign=top;align=center;strokeColor=none;fillColor=#00BEF2;shape=mxgraph.azure.storage_blob;" vertex="1" parent="seVqkqyQpupVL747UMXm-1">
          <mxGeometry x="354" y="403.44" width="50" height="45" as="geometry" />
        </mxCell>
        <mxCell id="seVqkqyQpupVL747UMXm-39" value="MySQL" style="image;aspect=fixed;html=1;points=[];align=center;fontSize=12;image=img/lib/azure2/databases/Azure_Database_MySQL_Server.svg;" vertex="1" parent="seVqkqyQpupVL747UMXm-1">
          <mxGeometry x="550" y="393.94" width="50" height="66.67" as="geometry" />
        </mxCell>
        <mxCell id="seVqkqyQpupVL747UMXm-40" value="Redis" style="image;sketch=0;aspect=fixed;html=1;points=[];align=center;fontSize=12;image=img/lib/mscae/Cache_Redis_Product.svg;" vertex="1" parent="seVqkqyQpupVL747UMXm-1">
          <mxGeometry x="786" y="404.94" width="50" height="42" as="geometry" />
        </mxCell>
        <mxCell id="seVqkqyQpupVL747UMXm-41" value="Azure Cache&lt;div&gt;for Redis&lt;/div&gt;" style="image;sketch=0;aspect=fixed;html=1;points=[];align=center;fontSize=12;image=img/lib/mscae/Azure_Cache_for_Redis.svg;" vertex="1" parent="seVqkqyQpupVL747UMXm-1">
          <mxGeometry x="668" y="400.94" width="50" height="50" as="geometry" />
        </mxCell>
        <mxCell id="seVqkqyQpupVL747UMXm-42" value="" style="shape=image;verticalLabelPosition=bottom;labelBackgroundColor=default;verticalAlign=top;aspect=fixed;imageAspect=0;image=https://d3r49iyjzglexf.cloudfront.net/circleci-logo-stacked-fb-657e221fda1646a7e652c09c9fbfb2b0feb5d710089bb4d8e8c759d37a832694.png;" vertex="1" parent="seVqkqyQpupVL747UMXm-1">
          <mxGeometry x="-299" y="1032.94" width="70" height="70" as="geometry" />
        </mxCell>
        <mxCell id="seVqkqyQpupVL747UMXm-43" value="" style="shape=image;verticalLabelPosition=bottom;labelBackgroundColor=default;verticalAlign=top;aspect=fixed;imageAspect=0;image=https://cdn.iconscout.com/icon/free/png-256/free-jenkins-1-282385.png;" vertex="1" parent="seVqkqyQpupVL747UMXm-1">
          <mxGeometry x="-183" y="1032.94" width="60" height="60" as="geometry" />
        </mxCell>
        <mxCell id="seVqkqyQpupVL747UMXm-44" value="Azure DevOps" style="image;aspect=fixed;html=1;points=[];align=center;fontSize=12;image=img/lib/azure2/devops/Azure_DevOps.svg;" vertex="1" parent="seVqkqyQpupVL747UMXm-1">
          <mxGeometry x="-67" y="1031" width="45" height="45" as="geometry" />
        </mxCell>
        <mxCell id="seVqkqyQpupVL747UMXm-45" value="TeamCity" style="shape=image;verticalLabelPosition=bottom;labelBackgroundColor=default;verticalAlign=top;aspect=fixed;imageAspect=0;image=https://upload.wikimedia.org/wikipedia/commons/thumb/2/29/TeamCity_Icon.svg/1200px-TeamCity_Icon.svg.png;" vertex="1" parent="seVqkqyQpupVL747UMXm-1">
          <mxGeometry x="-291" y="963" width="60" height="60" as="geometry" />
        </mxCell>
        <mxCell id="seVqkqyQpupVL747UMXm-46" value="BitBucket" style="image;html=1;image=img/lib/atlassian/Bitbucket_Logo.svg;aspect=fixed;" vertex="1" parent="seVqkqyQpupVL747UMXm-1">
          <mxGeometry x="-289" y="1115" width="50" height="43.86" as="geometry" />
        </mxCell>
        <mxCell id="seVqkqyQpupVL747UMXm-47" value="Git" style="verticalLabelPosition=bottom;html=1;verticalAlign=top;align=center;strokeColor=none;fillColor=#00BEF2;shape=mxgraph.azure.github_code;pointerEvents=1;" vertex="1" parent="seVqkqyQpupVL747UMXm-1">
          <mxGeometry x="-178" y="1111.93" width="50" height="50" as="geometry" />
        </mxCell>
        <mxCell id="seVqkqyQpupVL747UMXm-48" value="Gitlab CI/CD" style="dashed=0;outlineConnect=0;html=1;align=center;labelPosition=center;verticalLabelPosition=bottom;verticalAlign=top;shape=mxgraph.weblogos.github;aspect=fixed;" vertex="1" parent="seVqkqyQpupVL747UMXm-1">
          <mxGeometry x="-178" y="958" width="50" height="50" as="geometry" />
        </mxCell>
        <mxCell id="seVqkqyQpupVL747UMXm-49" value="Azure Repo" style="image;sketch=0;aspect=fixed;html=1;points=[];align=center;fontSize=12;image=img/lib/mscae/Azure_Repos.svg;" vertex="1" parent="seVqkqyQpupVL747UMXm-1">
          <mxGeometry x="-67" y="1111.93" width="45" height="50" as="geometry" />
        </mxCell>
        <mxCell id="seVqkqyQpupVL747UMXm-50" value="" style="shape=image;verticalLabelPosition=bottom;labelBackgroundColor=default;verticalAlign=top;aspect=fixed;imageAspect=0;image=https://www.opsmx.com/wp-content/uploads/2022/07/Argo-1-e1630327305635-1.png;" vertex="1" parent="seVqkqyQpupVL747UMXm-1">
          <mxGeometry x="-101" y="956.48" width="110" height="73.03" as="geometry" />
        </mxCell>
        <mxCell id="seVqkqyQpupVL747UMXm-51" value="Prometheus" style="shape=image;verticalLabelPosition=bottom;labelBackgroundColor=default;verticalAlign=top;aspect=fixed;imageAspect=0;image=https://static-00.iconduck.com/assets.00/prometheus-icon-511x512-1vmxbcxr.png;" vertex="1" parent="seVqkqyQpupVL747UMXm-1">
          <mxGeometry x="102" y="1040.83" width="50" height="50.1" as="geometry" />
        </mxCell>
        <mxCell id="seVqkqyQpupVL747UMXm-52" value="Grafanna" style="image;aspect=fixed;html=1;points=[];align=center;fontSize=12;image=img/lib/azure2/other/Grafana.svg;" vertex="1" parent="seVqkqyQpupVL747UMXm-1">
          <mxGeometry x="237.5" y="1049.56" width="50" height="38.82" as="geometry" />
        </mxCell>
        <mxCell id="seVqkqyQpupVL747UMXm-53" value="Elasticseach" style="shape=image;verticalLabelPosition=bottom;labelBackgroundColor=default;verticalAlign=top;aspect=fixed;imageAspect=0;image=https://cdn.iconscout.com/icon/free/png-256/free-elastic-search-3629336-3031835.png;" vertex="1" parent="seVqkqyQpupVL747UMXm-1">
          <mxGeometry x="102" y="961" width="50" height="50" as="geometry" />
        </mxCell>
        <mxCell id="seVqkqyQpupVL747UMXm-54" value="Logstash" style="shape=image;verticalLabelPosition=bottom;labelBackgroundColor=default;verticalAlign=top;aspect=fixed;imageAspect=0;image=https://cdn.iconscout.com/icon/free/png-256/free-logstash-3628896-3030036.png;" vertex="1" parent="seVqkqyQpupVL747UMXm-1">
          <mxGeometry x="237.5" y="961" width="50" height="50" as="geometry" />
        </mxCell>
        <mxCell id="seVqkqyQpupVL747UMXm-55" value="Kibana" style="shape=image;verticalLabelPosition=bottom;labelBackgroundColor=default;verticalAlign=top;aspect=fixed;imageAspect=0;image=https://cdn.worldvectorlogo.com/logos/elastic-kibana.svg;" vertex="1" parent="seVqkqyQpupVL747UMXm-1">
          <mxGeometry x="361" y="968" width="50" height="50" as="geometry" />
        </mxCell>
        <mxCell id="seVqkqyQpupVL747UMXm-56" value="Kubernetes" style="shape=image;verticalLabelPosition=bottom;labelBackgroundColor=default;verticalAlign=top;aspect=fixed;imageAspect=0;image=https://static-00.iconduck.com/assets.00/kubernetes-icon-2048x1995-r1q3f8n7.png;" vertex="1" parent="seVqkqyQpupVL747UMXm-1">
          <mxGeometry x="554" y="980.8000000000001" width="50" height="48.71" as="geometry" />
        </mxCell>
        <mxCell id="seVqkqyQpupVL747UMXm-57" value="" style="image;aspect=fixed;html=1;points=[];align=center;fontSize=12;image=img/lib/azure2/general/Resource_Groups.svg;" vertex="1" parent="seVqkqyQpupVL747UMXm-1">
          <mxGeometry x="86" y="1208.9999999999998" width="35" height="32.94" as="geometry" />
        </mxCell>
        <mxCell id="seVqkqyQpupVL747UMXm-58" value="" style="rounded=1;whiteSpace=wrap;html=1;" vertex="1" parent="seVqkqyQpupVL747UMXm-1">
          <mxGeometry x="78" y="1245.8799999999999" width="381" height="232" as="geometry" />
        </mxCell>
        <mxCell id="seVqkqyQpupVL747UMXm-59" value="&lt;div style=&quot;font-size: 12px;&quot;&gt;Management&lt;/div&gt;" style="text;html=1;align=center;verticalAlign=middle;whiteSpace=wrap;rounded=0;fontSize=12;" vertex="1" parent="seVqkqyQpupVL747UMXm-1">
          <mxGeometry x="125" y="1216.36" width="72" height="29.52" as="geometry" />
        </mxCell>
        <mxCell id="seVqkqyQpupVL747UMXm-60" value="" style="shape=image;verticalLabelPosition=bottom;labelBackgroundColor=default;verticalAlign=top;aspect=fixed;imageAspect=0;image=https://upload.wikimedia.org/wikipedia/commons/thumb/2/24/Ansible_logo.svg/1664px-Ansible_logo.svg.png;" vertex="1" parent="seVqkqyQpupVL747UMXm-1">
          <mxGeometry x="145" y="1384.9999999999998" width="50" height="61.5" as="geometry" />
        </mxCell>
        <mxCell id="seVqkqyQpupVL747UMXm-61" value="" style="shape=image;verticalLabelPosition=bottom;labelBackgroundColor=default;verticalAlign=top;aspect=fixed;imageAspect=0;image=https://upload.wikimedia.org/wikipedia/commons/thumb/8/8a/Chef_logo.svg/1200px-Chef_logo.svg.png;" vertex="1" parent="seVqkqyQpupVL747UMXm-1">
          <mxGeometry x="347" y="1266.9999999999998" width="60" height="64.22" as="geometry" />
        </mxCell>
        <mxCell id="seVqkqyQpupVL747UMXm-62" value="Puppet" style="shape=image;verticalLabelPosition=bottom;labelBackgroundColor=default;verticalAlign=top;aspect=fixed;imageAspect=0;image=https://cdn.icon-icons.com/icons2/2699/PNG/512/puppet_logo_icon_168887.png;" vertex="1" parent="seVqkqyQpupVL747UMXm-1">
          <mxGeometry x="351" y="1383" width="60" height="60" as="geometry" />
        </mxCell>
        <mxCell id="seVqkqyQpupVL747UMXm-63" value="" style="image;sketch=0;aspect=fixed;html=1;points=[];align=center;fontSize=12;image=img/lib/mscae/Docker.svg;" vertex="1" parent="seVqkqyQpupVL747UMXm-1">
          <mxGeometry x="718" y="1038.34" width="60" height="49.2" as="geometry" />
        </mxCell>
        <mxCell id="seVqkqyQpupVL747UMXm-64" value="Azure Kubernetes&lt;div&gt;Service&lt;/div&gt;" style="image;aspect=fixed;html=1;points=[];align=center;fontSize=12;image=img/lib/azure2/compute/Kubernetes_Services.svg;" vertex="1" parent="seVqkqyQpupVL747UMXm-1">
          <mxGeometry x="545" y="1083" width="68" height="60" as="geometry" />
        </mxCell>
        <mxCell id="seVqkqyQpupVL747UMXm-65" value="" style="shape=image;verticalLabelPosition=bottom;labelBackgroundColor=default;verticalAlign=top;aspect=fixed;imageAspect=0;image=https://iconape.com/wp-content/png_logo_vector/nginx.png;" vertex="1" parent="seVqkqyQpupVL747UMXm-1">
          <mxGeometry x="-188" y="395.9433333333335" width="60" height="60" as="geometry" />
        </mxCell>
        <mxCell id="seVqkqyQpupVL747UMXm-66" value="" style="shape=image;verticalLabelPosition=bottom;labelBackgroundColor=default;verticalAlign=top;aspect=fixed;imageAspect=0;image=https://s3-ap-southeast-2.amazonaws.com/content-prod-529546285894/2020/03/tf.png;" vertex="1" parent="seVqkqyQpupVL747UMXm-1">
          <mxGeometry x="129.99823529411776" y="1259.164117647059" width="80" height="79.89" as="geometry" />
        </mxCell>
        <mxCell id="seVqkqyQpupVL747UMXm-67" value="Terragrunt" style="shape=image;verticalLabelPosition=bottom;labelBackgroundColor=default;verticalAlign=top;aspect=fixed;imageAspect=0;image=https://global.discourse-cdn.com/standard11/uploads/gruntwork/original/1X/451c24614aece67849fd62d0432d77ecd00735c6.png;" vertex="1" parent="seVqkqyQpupVL747UMXm-1">
          <mxGeometry x="248.9964705882354" y="1262.0011764705882" width="60" height="60" as="geometry" />
        </mxCell>
        <mxCell id="seVqkqyQpupVL747UMXm-68" value="Azure Bastion" style="image;aspect=fixed;html=1;points=[];align=center;fontSize=12;image=img/lib/azure2/networking/Bastions.svg;" vertex="1" parent="seVqkqyQpupVL747UMXm-1">
          <mxGeometry x="256.5" y="1383" width="45" height="52.76" as="geometry" />
        </mxCell>
        <mxCell id="seVqkqyQpupVL747UMXm-69" value="" style="image;aspect=fixed;html=1;points=[];align=center;fontSize=12;image=img/lib/azure2/general/Resource_Groups.svg;" vertex="1" parent="seVqkqyQpupVL747UMXm-1">
          <mxGeometry x="-322" y="1208.9999999999998" width="35" height="32.94" as="geometry" />
        </mxCell>
        <mxCell id="seVqkqyQpupVL747UMXm-70" value="" style="rounded=1;whiteSpace=wrap;html=1;" vertex="1" parent="seVqkqyQpupVL747UMXm-1">
          <mxGeometry x="-330" y="1245.8799999999999" width="381" height="232" as="geometry" />
        </mxCell>
        <mxCell id="seVqkqyQpupVL747UMXm-71" value="&lt;div style=&quot;font-size: 12px;&quot;&gt;Security&lt;/div&gt;" style="text;html=1;align=center;verticalAlign=middle;whiteSpace=wrap;rounded=0;fontSize=12;" vertex="1" parent="seVqkqyQpupVL747UMXm-1">
          <mxGeometry x="-283" y="1216.36" width="72" height="29.52" as="geometry" />
        </mxCell>
        <mxCell id="seVqkqyQpupVL747UMXm-72" value="HashCorp Vault" style="shape=image;verticalLabelPosition=bottom;labelBackgroundColor=default;verticalAlign=top;aspect=fixed;imageAspect=0;image=https://www.linode.com/docs/guides/applications/configuration-management/vault/feature.png;" vertex="1" parent="seVqkqyQpupVL747UMXm-1">
          <mxGeometry x="-277" y="1261.9970588235292" width="60" height="60" as="geometry" />
        </mxCell>
        <mxCell id="seVqkqyQpupVL747UMXm-73" value="Azure Key Vault" style="image;aspect=fixed;html=1;points=[];align=center;fontSize=12;image=img/lib/azure2/security/Key_Vaults.svg;" vertex="1" parent="seVqkqyQpupVL747UMXm-1">
          <mxGeometry x="-64" y="1262" width="60" height="60" as="geometry" />
        </mxCell>
        <mxCell id="seVqkqyQpupVL747UMXm-74" value="Azure Firewall&lt;div&gt;Manager&lt;/div&gt;" style="image;sketch=0;aspect=fixed;html=1;points=[];align=center;fontSize=12;image=img/lib/mscae/Azure_Firewall.svg;" vertex="1" parent="seVqkqyQpupVL747UMXm-1">
          <mxGeometry x="-169.5" y="1375.76" width="60" height="60" as="geometry" />
        </mxCell>
      </root>
    </mxGraphModel>
  </diagram>
</mxfile>
